<svg id="Lager_1" data-name="Lager 1" xmlns="http://www.w3.org/2000/svg" xmlns:xlink="http://www.w3.org/1999/xlink" viewBox="0 0 351.25 351.25"><defs><style>.cls-1{fill:#fff381;}.cls-1,.cls-2,.cls-3,.cls-4,.cls-5{fill-rule:evenodd;}.cls-2{fill:#ffd500;}.cls-3{fill:#ffed00;}.cls-4{fill:url(#linear-gradient);}.cls-5,.cls-7{fill:#1d6baf;}.cls-6{fill:url(#linear-gradient-2);}.cls-8{fill:none;}.cls-9{fill:#a0c9db;}.cls-10{fill:#1e5d9f;}.cls-11{fill:#fff;}.cls-12{fill:#fbea12;}</style><linearGradient id="linear-gradient" x1="31.03" y1="124.45" x2="326.65" y2="232.05" gradientUnits="userSpaceOnUse"><stop offset="0" stop-color="#ffe900"/><stop offset="0.17" stop-color="#f8e300"/><stop offset="0.41" stop-color="#e6d200"/><stop offset="0.69" stop-color="#c7b600"/><stop offset="1" stop-color="#9e9100"/></linearGradient><linearGradient id="linear-gradient-2" x1="146.46" y1="56.4" x2="161.73" y2="103.37" gradientTransform="matrix(1.08, -0.02, -0.02, 1.01, -12.62, 2.71)" gradientUnits="userSpaceOnUse"><stop offset="0" stop-color="#87c3db"/><stop offset="0.69" stop-color="#1d6baf"/></linearGradient></defs><title>logo-salensommar_square</title><path class="cls-1" d="M338.88,109.09C331.53,91.06,310,81.38,292.51,90c-6.54,3.22-4,.55-28.46,18.6,24-18.66,20.72-17,25.58-22.39,13-14.5,9.49-37.87-5.89-49.81S244.85,26.84,234,43c-4,6-3.22,2.48-15.34,30.33,11.43-28.14,9.46-25,11-32.18,4-19-10.72-37.54-30-40.2S161.18,12.16,159.9,31.58c-.48,7.27-1.55,3.75,1.86,33.91-4.16-30.07-4.31-26.4-6.58-33.32-6.06-18.5-28.06-27.15-46.09-19.8S81.38,41.28,90,58.74c3.21,6.54.53,4,18.57,28.44-18.64-24-16.93-20.7-22.36-25.56-14.49-13-37.87-9.49-49.81,5.89S26.83,106.4,43,117.23c6.05,4,2.46,3.21,30.3,15.34-28.12-11.44-25-9.47-32.14-11-19-4-37.55,10.72-40.2,30s11.19,38.45,30.61,39.74c7.27.48,3.75,1.54,33.92-1.87-30.08,4.17-26.4,4.32-33.33,6.58-18.5,6.06-27.15,28.06-19.8,46.09s28.91,27.71,46.38,19.11c6.53-3.21,4-.52,28.42-18.56-24,18.64-20.69,16.93-25.56,22.35-13,14.49-9.49,37.87,5.9,49.82s38.89,9.53,49.71-6.64c4.06-6.06,3.21-2.47,15.35-30.31-11.44,28.14-9.47,25-11,32.16-4,19,10.72,37.54,30,40.19s38.46-11.19,39.73-30.61c.49-7.27,1.55-3.74-1.86-33.91,4.16,30.08,4.31,26.4,6.59,33.32,6.06,18.5,28,27.16,46.08,19.81s27.71-28.92,19.12-46.38c-3.23-6.54-.55-4-18.6-28.44,18.65,24,16.95,20.7,22.38,25.56,14.5,13,37.87,9.5,49.82-5.88s9.54-38.9-6.65-49.72c-6.05-4.06-2.48-3.21-30.32-15.35,28.13,11.44,25,9.46,32.17,11,19.05,4,37.55-10.72,40.2-30s-11.19-38.46-30.61-39.75c-7.27-.48-3.76-1.53-33.93,1.88,30.08-4.16,26.41-4.33,33.34-6.59C337.57,149.12,346.23,127.13,338.88,109.09Z"/><path class="cls-2" d="M319,73c-11.33-15.84-34.55-20.24-49.54-7.83-5.61,4.64-3.78,1.47-23.36,24.69,19-23.7,16.21-21.3,19.69-27.71,9.27-17.11.44-39-17.29-47.09s-40.05-.25-46.82,18c-2.54,6.82-2.56,3.16-7.9,33.06,4.6-30,3.4-26.57,3.2-33.84-.52-19.47-19.13-34-38.51-32.14s-34.81,19.8-31.55,39c1.22,7.18-.63,4,9.68,32.55-11-28.28-10.32-24.68-14.13-30.88C112.27,24.24,88.87,20.93,73,32.26S52.79,66.81,65.2,81.8c4.64,5.61,1.45,3.79,24.66,23.36-23.69-19-21.27-16.22-27.68-19.68-17.11-9.28-39-.45-47.09,17.28s-.26,40.05,18,46.83c6.83,2.53,3.14,2.55,33,7.89-30-4.6-26.53-3.41-33.81-3.2-19.46.52-34,19.13-32.14,38.51s19.8,34.81,39,31.56c7.19-1.22,4,.63,32.56-9.69C43.43,225.69,47,225,40.83,228.8c-16.59,10.18-19.9,33.58-8.57,49.42s34.55,20.24,49.54,7.83c5.61-4.64,3.78-1.44,23.35-24.65-19,23.69-16.21,21.27-19.68,27.67-9.27,17.11-.44,39,17.29,47.09s40.05.25,46.83-18c2.54-6.83,2.54-3.15,7.89-33-4.6,30-3.4,26.54-3.21,33.82.53,19.45,19.14,34,38.52,32.13s34.81-19.8,31.55-39c-1.21-7.18.64-4-9.68-32.55,11,28.29,10.32,24.67,14.14,30.88C239,327,262.38,330.33,278.22,319s20.25-34.56,7.83-49.56c-4.64-5.6-1.46-3.77-24.68-23.34,23.7,19,21.29,16.21,27.7,19.67,17.12,9.28,39,.45,47.09-17.28s.26-40.05-18-46.82c-6.82-2.54-3.16-2.55-33.05-7.89,30,4.6,26.55,3.39,33.84,3.19,19.45-.52,34-19.13,32.13-38.51s-19.8-34.81-39-31.55c-7.18,1.21-4-.63-32.57,9.7,28.29-11,24.69-10.35,30.9-14.16C327,112.27,330.33,88.87,319,73Z"/><path class="cls-3" d="M316.1,69.11c-11.77-15.52-35.1-19.29-49.74-6.46-5.48,4.79-3.74,1.57-22.68,25.32C262,63.75,259.31,66.23,262.6,59.73c8.8-17.36-.63-39-18.58-46.59S204,14,197.71,32.42c-2.34,6.89-2.47,3.23-7,33.27C194.5,35.55,193.4,39,193,31.77,191.94,12.33,172.93-1.72,153.61.71s-34.24,20.75-30.46,39.85c1.42,7.14-.52,4,10.58,32.27-11.81-28-11-24.38-15-30.48-10.64-16.3-34.13-19-49.65-7.2s-19.28,35.1-6.45,49.74c4.79,5.48,1.55,3.74,25.29,22.67C63.73,89.24,66.23,91.94,59.73,88.65c-17.36-8.8-39,.63-46.59,18.58s.85,40,19.27,46.31c6.9,2.34,3.21,2.47,33.24,7-30.12-3.76-26.61-2.66-33.88-2.26C12.34,159.31-1.72,178.32.71,197.64s20.76,34.24,39.85,30.46c7.15-1.42,4,.53,32.28-10.58-28,11.81-24.39,11-30.49,15-16.3,10.64-19,34.13-7.2,49.65s35.1,19.28,49.74,6.45c5.48-4.8,3.74-1.54,22.66-25.28-18.32,24.2-15.61,21.7-18.9,28.2-8.8,17.36.63,39,18.58,46.59s40-.85,46.31-19.28c2.35-6.89,2.46-3.21,7-33.24-3.76,30.14-2.66,26.62-2.27,33.9,1.07,19.43,20.08,33.48,39.4,31.05s34.25-20.76,30.46-39.85c-1.41-7.14.52-4-10.58-32.27,11.81,28,11,24.38,15,30.47,10.64,16.31,34.12,19,49.63,7.21s19.29-35.1,6.47-49.75c-4.8-5.47-1.57-3.73-25.32-22.65C287.51,262,285,259.31,291.52,262.6c17.37,8.8,39-.63,46.59-18.58s-.85-40-19.28-46.31c-6.89-2.35-3.23-2.45-33.26-7,30.13,3.77,26.64,2.66,33.91,2.26,19.43-1.06,33.49-20.07,31.06-39.38s-20.76-34.26-39.85-30.47c-7.14,1.42-4-.51-32.29,10.6,28-11.82,24.4-11,30.49-15C325.2,108.11,327.87,84.62,316.1,69.11Z"/><path class="cls-3" d="M157.35,13.11A164,164,0,1,1,15.09,196.33,164,164,0,0,1,157.35,13.11Z"/><path class="cls-4" d="M178.84,21A157.25,157.25,0,1,1,21.59,178.25,157.25,157.25,0,0,1,178.84,21Z"/><path class="cls-5" d="M177.44,21.82A154.62,154.62,0,1,1,22.82,176.44,154.62,154.62,0,0,1,177.44,21.82Z"/><path class="cls-6" d="M206.44,65.18c3.51,13.11-17.91,30.24-47.83,38.26s-57,3.89-60.55-9.22S116,64,145.89,56,202.92,52.07,206.44,65.18Z"/><polygon class="cls-7" points="86.19 264.73 70.11 269.47 65.85 254.98 81.93 250.24 86.19 264.73"/><polygon class="cls-7" points="318.76 194.43 302.68 199.17 298.3 184.25 314.38 179.5 318.76 194.43"/><path class="cls-8" d="M298.9,176.14l-20.85,68.29c1.57,2.09,3.78,5.15,6,8.19a129.92,129.92,0,0,0,24.15-75.57c0-.42,0-.84,0-1.26A51.68,51.68,0,0,1,298.9,176.14Z"/><path class="cls-8" d="M81.08,251.62a33.86,33.86,0,0,1-7.39,4.92,131.24,131.24,0,0,0,60.87,44l1.88-9.41Z"/><path class="cls-8" d="M202.57,69.75,275.9,105a55.83,55.83,0,0,1,7.32-4.6A130.65,130.65,0,0,0,55.13,130.81a90.38,90.38,0,0,1,12.3-4.28Z"/><path class="cls-8" d="M56.64,204.17a32.41,32.41,0,0,1-7.45-1.51,129.7,129.7,0,0,0,11.62,33.46,35.2,35.2,0,0,0,8.77-3.19Z"/><path class="cls-9" d="M310.58,175.42c-.84.15-1.65.27-2.45.37,0,.42,0,.84,0,1.26A129.92,129.92,0,0,1,284,252.62l1.55,2.17a132.62,132.62,0,0,0,25.06-77.74C310.62,176.51,310.59,176,310.58,175.42Z"/><path class="cls-9" d="M73.69,256.54c-.78.39-1.55.76-2.33,1.11A133.47,133.47,0,0,0,134.07,303l.49-2.46A131.24,131.24,0,0,1,73.69,256.54Z"/><path class="cls-9" d="M49.19,202.66c-.87-.25-1.75-.51-2.65-.8a132.28,132.28,0,0,0,11.72,34.76c.89-.14,1.74-.31,2.55-.5A129.7,129.7,0,0,1,49.19,202.66Z"/><path class="cls-9" d="M177.41,46.3a130.63,130.63,0,0,1,105.81,54.07l2.27-1.15A133.21,133.21,0,0,0,51.93,132.27c1.08-.52,2.15-1,3.2-1.46A131,131,0,0,1,177.41,46.3Z"/><path class="cls-7" d="M177.41,310.27A133.1,133.1,0,0,1,134.07,303l-1.23,6.11c71.17,52.47,158.7-45.88,158.7-45.88s-2.78-3.95-6-8.46A133,133,0,0,1,177.41,310.27Z"/><path class="cls-7" d="M319.75,172.54,294.59,95.63a64.27,64.27,0,0,0-9.1,3.59,132.54,132.54,0,0,1,25.09,76.2A34.54,34.54,0,0,0,319.75,172.54Z"/><path class="cls-7" d="M48,236.52l10.65,25.4a71.65,71.65,0,0,0,12.69-4.27,133.34,133.34,0,0,1-13.1-21A30.7,30.7,0,0,1,48,236.52Z"/><path class="cls-7" d="M51.93,132.27a46.65,46.65,0,0,0-11.1,7.2L32.09,196.7s7.48,3,14.45,5.16a133,133,0,0,1,5.39-69.59Z"/><path class="cls-10" d="M326.13,148.76c-2.08,3.23-4.37,5.93-5.84,6.21s-2.31-.94-2.42-3.31c-.59-11.81-.82-21.23-1.38-29.09a35.8,35.8,0,0,0-3.18-13.24c-1.85-3.6-7.1-7.47-14.51-6.07-16.11,3.06-21.48,20.41-24.87,34.15l-.64.15q-.66-9.8-1.14-19.27c-.14-3.5-2.23-9.15-9.6-7.5-8.75,2-15.57,8.33-19.25,14.84-3.63-4.94-11.29-7.47-19.4-5.3a35.74,35.74,0,0,0-20.57,14.85c-7.42,10.69-9.41,26-5.48,38.88-2.09,6-6.17,16.37-9.22,17.42-2.16.74-3-2.27-3.41-7.18-2.67-27.5-4.45-52.4-5.53-75.27-.41-7.57-.36-12.71-.48-18.56-.34-.73-1-1-2.08-.77-7.47,2.48-21.72,9.7-25.74,12.92a2.38,2.38,0,0,0,.6,3.23l5.1.62c3.28.37,4,1.71,4.33,6.89.94,22.26,2.52,46.47,4.9,73.09-.1,0-.22,0-.32.08-2.59,6.7-8,14.24-10.09,15.05-1.07.41-1.47-.92-1.76-3.21-1.8-19.27-2.29-38-2.32-53.36-1.36-1.11-4.29-1.82-7.15-1.59a20.43,20.43,0,0,0-5.92,1.2,8.08,8.08,0,0,0-3.62,2.45q-.33,3.88-.61,7.81c-2.95-1.17-6.49-1.27-8-.7-7.93,3-15.21,10.38-21.41,22.92-5,10.27-7.4,22.28-7.79,32.47a39.07,39.07,0,0,0-2.25-7.74c-5.46-13.37-17.3-18.29-28.23-19.85l-5.8-.84c-13-1.75-17.36-6-19-10.26-2.68-6.71.72-17.5,11.92-22.62,12.35-5.6,21,1.19,23.24,11.74,1.39.83,5.26-.37,5.77-2.52a91.52,91.52,0,0,1-.81-20.35c-8-1.46-19,.11-29.7,4.82C31.86,151.13,20.51,169.62,27.37,187c3.69,9.5,14,13.93,25.58,16l4.78.85c11,2,17.57,6.55,20.69,14.31,5,12.61-.82,23.61-10.12,28.33-8.15,4.13-16.72,3.44-24.63-2.82-5.37-4.13-8.77-10.14-10.75-14.37-1.64-1,13.76,31.77,14,31.77a48.67,48.67,0,0,0,22.05-5.62c17.8-9.07,27.24-22,28.78-35.48a31.36,31.36,0,0,0,1.83,7.9c2.23,5.41,8.73,8.13,13.43,6,11-5,20-23.92,23.92-39.78l.6-.24q.28,6.89.63,13.91a25,25,0,0,0,1.22,7.45c1.12,2.61,4.71,5.58,8.68,4,8.09-3.26,15.35-12,19.49-21.43a21.33,21.33,0,0,0,1.42,5.05c1.43,3.24,5.23,6.17,12.95,3.43,13.23-4.66,18.14-14.42,20-23.3,5,7.77,13.24,12.18,23,9.24,14.15-4.25,23.4-14.89,25.56-28.65a4.39,4.39,0,0,0-4.87-2.7c-4,9-9.75,14.89-15.43,16.52-4.72,1.36-8.8-2.42-10.76-6.6-1.5-3.22-2.41-5.55-2.63-7.55,9.4-6,28-17.15,28.9-29.46,2.29-3.73,5.64-7.89,8.36-8.54,1.91-.46,2.85,1.83,3.13,4.94.42,6.14,4,41.85,4.45,44.62.88,5.54,7.79,5.25,11.84,4.28,3.56-.87,6.34-2.24,6.38-4.77-.26-16.81.08-35.84,4.09-48.25,2.45-7.58,5.55-11.14,7.82-11.6a2.73,2.73,0,0,1,3.12,1.54c.72,1.41,1,3.38,1.25,7.09,1,11,1.22,22.28,1.74,34.06.16,3.25.59,6.64,1.78,9,1.44,2.88,6.44,5.57,10.26,4.8a30.52,30.52,0,0,0,18.27-11.48C332.22,154.28,327.61,146.47,326.13,148.76Zm-194.6,44.45c-1.95,8-6.29,20.84-9.59,22.26-1.21.52-2.37-.12-3.2-1.66-.19-.48-.4-.95-.59-1.43-3.72-8.8-2.78-27,.91-39.32,2.43-8.21,4.61-10.55,6.85-11.43,2.4-.93,5.05-.47,8.64,3A132.75,132.75,0,0,1,131.53,193.21Zm94.33-49.47A28,28,0,0,1,215,156.31c-1.16-5.85-1.65-15.88,1.4-23,1.2-3,3-4.92,5-5.47,1.87-.52,3.76.85,4.48,2.39A19.54,19.54,0,0,1,225.86,143.74Zm-93.93-5.64c4.61-2.24,4.69-10,4.86-13.06s-1-6.86-5.75-7.26-7.66,8.58-8.1,12.71S127.31,140.34,131.93,138.1Zm-19.54,13.09c4.61-2.24,4.7-10,4.86-13.06s-1-6.86-5.75-7.26-7.66,8.58-8.1,12.71S107.77,153.43,112.39,151.19Z"/><path class="cls-11" d="M326.13,143.79c-2.08,3.23-4.37,5.93-5.84,6.2s-2.31-.94-2.42-3.3c-.59-11.82-.82-21.23-1.38-29.1a35.69,35.69,0,0,0-3.18-13.23c-1.85-3.6-7.1-7.48-14.51-6.08-16.11,3.06-21.48,20.41-24.87,34.16l-.64.15q-.66-9.8-1.14-19.28c-.14-3.5-2.23-9.15-9.6-7.49-8.75,2-15.57,8.33-19.25,14.83-3.63-4.93-11.29-7.46-19.4-5.29a35.69,35.69,0,0,0-20.57,14.85c-7.42,10.68-9.41,26-5.48,38.88-2.09,6-6.17,16.37-9.22,17.42-2.16.73-3-2.27-3.41-7.18-2.67-27.51-4.45-52.4-5.53-75.27-.41-7.57-.36-12.71-.48-18.57-.34-.73-1-1-2.08-.76-7.47,2.48-21.72,9.7-25.74,12.92a2.38,2.38,0,0,0,.6,3.23l5.1.61c3.28.38,4,1.72,4.33,6.89.94,22.27,2.52,46.48,4.9,73.1a1.87,1.87,0,0,0-.32.08c-2.59,6.7-8,14.23-10.09,15.05-1.07.41-1.47-.92-1.76-3.22-1.8-19.26-2.29-38-2.32-53.35-1.36-1.12-4.29-1.83-7.15-1.59a20.42,20.42,0,0,0-5.92,1.19,8.09,8.09,0,0,0-3.62,2.46c-.22,2.58-.42,5.19-.61,7.81-2.95-1.17-6.49-1.28-8-.7-7.93,3-15.21,10.38-21.41,22.92-5,10.26-7.4,22.28-7.79,32.47a39,39,0,0,0-2.25-7.75c-5.46-13.36-17.3-18.29-28.23-19.85l-5.8-.84c-13-1.75-17.36-6-19-10.25-2.68-6.72.72-17.5,11.92-22.62,12.35-5.6,21,1.19,23.24,11.73,1.39.83,5.26-.37,5.77-2.51a91.52,91.52,0,0,1-.81-20.35c-8-1.46-19,.1-29.7,4.82-20.59,9.18-31.94,27.67-25.08,45.08,3.69,9.49,14,13.92,25.58,16l4.78.86c11,2,17.57,6.55,20.69,14.3,5,12.62-.82,23.62-10.12,28.34-8.15,4.13-16.72,3.44-24.63-2.82C38.3,234.58,33,228.86,31,224.64c-1.64-1,9.82,31.38,15.87,31.46a47.51,47.51,0,0,0,22.05-5.61c17.8-9.08,27.24-22,28.78-35.48a31.46,31.46,0,0,0,1.83,7.9c2.23,5.41,8.73,8.13,13.43,6,11-5,20-23.91,23.92-39.77l.6-.24q.28,6.88.63,13.91a24.86,24.86,0,0,0,1.22,7.44c1.12,2.62,4.71,5.58,8.68,4,8.09-3.26,15.35-12,19.49-21.43a21.37,21.37,0,0,0,1.42,5c1.43,3.25,5.23,6.18,12.95,3.44,13.23-4.67,18.14-14.42,20-23.31,5,7.77,13.24,12.19,23,9.25,14.15-4.25,23.4-14.89,25.56-28.65a4.39,4.39,0,0,0-4.87-2.7c-4,9-9.75,14.88-15.43,16.52-4.72,1.35-8.8-2.42-10.76-6.6-1.5-3.22-2.41-5.56-2.63-7.56,9.4-6,28-17.14,28.9-29.45,2.29-3.73,5.64-7.9,8.36-8.54,1.91-.46,2.85,1.83,3.13,4.94.42,6.14,4,41.84,4.45,44.62.88,5.54,7.79,5.24,11.84,4.27,3.56-.86,6.34-2.23,6.38-4.76-.26-16.82.08-35.85,4.09-48.25,2.45-7.59,5.55-11.14,7.82-11.6a2.72,2.72,0,0,1,3.12,1.54c.72,1.4,1,3.37,1.25,7.08,1,11,1.22,22.29,1.74,34.07.16,3.24.59,6.64,1.78,9,1.44,2.88,6.44,5.57,10.26,4.8a30.57,30.57,0,0,0,18.27-11.49C332.22,149.31,327.61,141.5,326.13,143.79Zm-194.6,44.45c-1.95,8-6.29,20.83-9.59,22.26-1.21.52-2.37-.13-3.2-1.66-.19-.48-.4-1-.59-1.44-3.72-8.8-2.78-27,.91-39.31,2.43-8.21,4.61-10.56,6.85-11.43,2.4-.94,5.05-.47,8.64,3A132.78,132.78,0,0,1,131.53,188.24Zm94.33-49.48A28,28,0,0,1,215,151.33c-1.16-5.84-1.65-15.87,1.4-23,1.2-3,3-4.92,5-5.48a4.1,4.1,0,0,1,4.48,2.4A19.52,19.52,0,0,1,225.86,138.76Zm-93.93-5.64c4.61-2.23,4.69-10,4.86-13.05s-1-6.86-5.75-7.26-7.66,8.58-8.1,12.7S127.31,135.36,131.93,133.12Zm-19.54,13.09c4.61-2.23,4.7-10,4.86-13.05s-1-6.86-5.75-7.26-7.66,8.58-8.1,12.7S107.77,148.45,112.39,146.21Z"/><path class="cls-10" d="M125.14,263.3a8.54,8.54,0,0,0-3.16-1.52,42.63,42.63,0,0,0-4.88-.94,10.5,10.5,0,0,1-2.42-.58,1.52,1.52,0,0,1-.93-1,1.61,1.61,0,0,1,.2-1.39,3,3,0,0,1,1.71-1.06,9,9,0,0,1,3.91-.32,19.22,19.22,0,0,1,3.66.84L121.61,252a11.17,11.17,0,0,0-1.67-.29,17.16,17.16,0,0,0-6.56.69,11,11,0,0,0-4.26,2.26,6.35,6.35,0,0,0-1.94,6.82,6.23,6.23,0,0,0,1.91,3,8,8,0,0,0,3,1.62,20.17,20.17,0,0,0,3.81.72,13,13,0,0,1,3,.53,1.9,1.9,0,0,1,1.35,1.28,1.73,1.73,0,0,1-.18,1.25c-.23.49-.93.92-2.1,1.27a9.29,9.29,0,0,1-3.79.38,26.17,26.17,0,0,1-3.93-.74l1.7,5.59a22.82,22.82,0,0,0,3.91.14,21.41,21.41,0,0,0,2.88-.33c.7-.15,1.29-.29,1.76-.43a12.07,12.07,0,0,0,4.24-2.2,7.34,7.34,0,0,0,2.32-3.32,6.61,6.61,0,0,0,0-4A5.76,5.76,0,0,0,125.14,263.3Zm30-15.71a11.26,11.26,0,0,0-3.55-3,11.82,11.82,0,0,0-4.84-1.3,16.77,16.77,0,0,0-5.91.77,15.2,15.2,0,0,0-6.66,3.81,11,11,0,0,0-3,5.63,12.88,12.88,0,0,0,3.5,11.48,11.25,11.25,0,0,0,5.66,3,15.11,15.11,0,0,0,7.64-.53,15.38,15.38,0,0,0,6.61-3.73,11.11,11.11,0,0,0,3.09-5.59,12.56,12.56,0,0,0-.32-6.31A12.69,12.69,0,0,0,155.11,247.59Zm-4.58,9.6a5.24,5.24,0,0,1-1.4,2.68,6.69,6.69,0,0,1-3,1.73,6.28,6.28,0,0,1-7.4-8.76,6.06,6.06,0,0,1,3.85-2.93,7.19,7.19,0,0,1,2.68-.33,5.5,5.5,0,0,1,2.23.64,5.19,5.19,0,0,1,1.7,1.5,7.19,7.19,0,0,1,1.09,2.22A6.77,6.77,0,0,1,150.53,257.19Zm30.53-25-4.43,10.68-9.6-6.41-6.23,1.89,6.92,22.77,6.68-2-4-13.2,8.53,5.76.54-.17,3.88-9.52,4,13.19,6.88-2.09-6.93-22.77ZM216,221.55l-4.44,10.69L202,225.82l-6.23,1.89,6.92,22.78,6.67-2-4-13.19,8.54,5.75.54-.16,3.87-9.53,4,13.2,6.87-2.09-6.92-22.78Zm22.05-6.69-3.15,25.83,7-2.13.48-5.2,9.89-3,3.26,4.06,7-2.14-17-19.72Zm4.78,14,.84-9.33,5.86,7.29Zm43.74-9.33a20.16,20.16,0,0,0-3-3,7.11,7.11,0,0,0-2.28-1,14.17,14.17,0,0,0,1.34-1.54,5.43,5.43,0,0,0,.88-2.16,6.19,6.19,0,0,0-.22-3.12,7.47,7.47,0,0,0-1.74-2.88,7.28,7.28,0,0,0-3.46-2,8.81,8.81,0,0,0-5,.26l-11.69,3.55,6.92,22.78,6.87-2.09-2.7-8.89.77-.24a5.74,5.74,0,0,1,2-.3,4,4,0,0,1,1.94.85,18.16,18.16,0,0,1,2.76,2.71l3,3.5,7.38-2.25ZM276,213.49a7.86,7.86,0,0,1-3.27,1.59l-1.48.45L269.6,210l1.45-.44a7.23,7.23,0,0,1,3.56-.4,2.48,2.48,0,0,1,1.7,1.89A2.35,2.35,0,0,1,276,213.49Z"/><path class="cls-12" d="M125.14,260.84a8.69,8.69,0,0,0-3.16-1.52,42.63,42.63,0,0,0-4.88-.94,10.5,10.5,0,0,1-2.42-.58,1.52,1.52,0,0,1-.93-1,1.61,1.61,0,0,1,.2-1.39,3,3,0,0,1,1.71-1.06,9.15,9.15,0,0,1,3.91-.32,20,20,0,0,1,3.66.84l-1.62-5.34a11.17,11.17,0,0,0-1.67-.29,17.16,17.16,0,0,0-6.56.69,10.9,10.9,0,0,0-4.26,2.27,6.48,6.48,0,0,0-2,3.21,6.59,6.59,0,0,0,.1,3.6,6.23,6.23,0,0,0,1.91,3,8,8,0,0,0,3,1.62,20.17,20.17,0,0,0,3.81.72,13.55,13.55,0,0,1,3,.53,1.92,1.92,0,0,1,1.35,1.28,1.72,1.72,0,0,1-.18,1.25c-.23.49-.93.92-2.1,1.28a9.45,9.45,0,0,1-3.79.37,25,25,0,0,1-3.93-.74l1.7,5.59a22.82,22.82,0,0,0,3.91.14,19.88,19.88,0,0,0,2.88-.33c.7-.15,1.29-.29,1.76-.43a12.07,12.07,0,0,0,4.24-2.2,7.28,7.28,0,0,0,2.32-3.32,6.61,6.61,0,0,0,0-4A5.76,5.76,0,0,0,125.14,260.84Zm30-15.71a11.26,11.26,0,0,0-3.55-3,11.82,11.82,0,0,0-4.84-1.3,16.77,16.77,0,0,0-5.91.77,15.11,15.11,0,0,0-6.66,3.82,11,11,0,0,0-3,5.62,12.85,12.85,0,0,0,3.5,11.48,11.17,11.17,0,0,0,5.66,3,15.11,15.11,0,0,0,7.64-.53,15.38,15.38,0,0,0,6.61-3.73,11.12,11.12,0,0,0,3.09-5.58,13.14,13.14,0,0,0-2.5-10.55Zm-4.58,9.6a5.24,5.24,0,0,1-1.4,2.68,6.69,6.69,0,0,1-3,1.73,6.12,6.12,0,1,1-3.55-11.69,7.19,7.19,0,0,1,2.68-.33,5.5,5.5,0,0,1,2.23.64,5.19,5.19,0,0,1,1.7,1.5,7.14,7.14,0,0,1,1.09,2.23A6.73,6.73,0,0,1,150.53,254.73Zm30.53-25-4.43,10.69L167,234l-6.23,1.89,6.92,22.78,6.68-2-4-13.19,8.53,5.75.54-.17,3.88-9.52,4,13.19,6.88-2.08-6.93-22.78ZM216,219.09l-4.44,10.69L202,223.36l-6.23,1.9L202.66,248l6.67-2-4-13.19,8.54,5.75.54-.16,3.87-9.53,4,13.2,6.87-2.09-6.92-22.78Zm22.05-6.69-3.15,25.83,7-2.13.48-5.2,9.89-3,3.26,4,7-2.14-17-19.72Zm4.78,14.06.84-9.34,5.86,7.3Zm43.74-9.33a19.87,19.87,0,0,0-3-3,7.11,7.11,0,0,0-2.28-1,13.28,13.28,0,0,0,1.34-1.54,5.43,5.43,0,0,0,.88-2.16,6.2,6.2,0,0,0-.22-3.12,7.62,7.62,0,0,0-1.74-2.88,7.28,7.28,0,0,0-3.46-2,8.9,8.9,0,0,0-5,.26L261.4,205.3l6.92,22.78,6.87-2.09-2.7-8.89.77-.23a5.78,5.78,0,0,1,2-.31,4.08,4.08,0,0,1,1.94.85,18.16,18.16,0,0,1,2.76,2.71l3,3.5,7.38-2.24ZM276,211a7.86,7.86,0,0,1-3.27,1.59l-1.48.45-1.67-5.48,1.45-.45a7.08,7.08,0,0,1,3.56-.39,2.45,2.45,0,0,1,1.7,1.88A2.35,2.35,0,0,1,276,211Z"/><path class="cls-9" d="M152,301.3a31.1,31.1,0,0,0-3-1.73,7.3,7.3,0,0,1-1.47-.93,1.11,1.11,0,0,1,.06-1.74,2.1,2.1,0,0,1,1.37-.31,6.34,6.34,0,0,1,2.66.67,13.64,13.64,0,0,1,2.23,1.4l.14-3.9a7.09,7.09,0,0,0-1-.57,10.89,10.89,0,0,0-1.93-.68,11.3,11.3,0,0,0-2.57-.36,7.58,7.58,0,0,0-3.33.52,4.61,4.61,0,0,0-2.08,1.66,4.54,4.54,0,0,0-.75,2.41,4.32,4.32,0,0,0,.57,2.43,5.67,5.67,0,0,0,1.62,1.76,14,14,0,0,0,2.35,1.34,9,9,0,0,1,1.85,1,1.37,1.37,0,0,1,.61,1.15,1.29,1.29,0,0,1-.41.79,2.31,2.31,0,0,1-1.68.36,6.48,6.48,0,0,1-2.59-.61,16.87,16.87,0,0,1-2.43-1.39l-.15,4.08a15.79,15.79,0,0,0,2.56,1,15.47,15.47,0,0,0,2,.44c.5.06.92.09,1.27.11a8.43,8.43,0,0,0,3.3-.49,5.06,5.06,0,0,0,2.28-1.66,4.6,4.6,0,0,0,.9-2.67,4,4,0,0,0-.57-2.37A6,6,0,0,0,152,301.3Zm13.54-8-6.29,17.07,5.13-.32,1.16-3.46,7.22-.46,1.57,3.28,5.13-.32-8.38-16.14Zm1,10.33,2.07-6.22,2.81,5.91Zm23.11-.23-2.13-12.47-4.94.84,2.79,16.4L197.82,306l-.67-3.93ZM208.21,300l-.93-3.43,6.74-1.83-.88-3.23-6.74,1.83-.8-2.94,7.07-1.92-.88-3.22-11.91,3.24,4.37,16.06,12.11-3.3-.88-3.23Zm20.72-21.19,3.48,8.55L221,282.07l-4.13,1.68,6.26,15.41,4.61-1.87-3.49-8.58,11.49,5.34,4.13-1.68L233.57,277Zm19.68,4.75a2.64,2.64,0,0,0-2.57-.09,2.57,2.57,0,0,0-1.27,1.53,2.5,2.5,0,0,0,.19,2,2.44,2.44,0,0,0,1.53,1.24,2.53,2.53,0,0,0,2-.19,2.54,2.54,0,0,0,1-3.48A2.54,2.54,0,0,0,248.61,283.58Zm13.06-12.16a6,6,0,0,0-2.42-.41,27.5,27.5,0,0,0-3.46.31,7.51,7.51,0,0,1-1.74.08,1.11,1.11,0,0,1-.94-1.46,2,2,0,0,1,.94-1,6.34,6.34,0,0,1,2.56-1,14,14,0,0,1,2.63-.14l-2.12-3.27a8.27,8.27,0,0,0-1.18.13,10.65,10.65,0,0,0-2,.55,12,12,0,0,0-2.31,1.17,7.62,7.62,0,0,0-2.43,2.35,4.66,4.66,0,0,0-.75,2.55,4.52,4.52,0,0,0,.77,2.4,4.29,4.29,0,0,0,1.86,1.67,5.62,5.62,0,0,0,2.33.51,15.67,15.67,0,0,0,2.7-.25,9.1,9.1,0,0,1,2.11-.23,1.37,1.37,0,0,1,1.15.6,1.21,1.21,0,0,1,.12.88c0,.38-.44.79-1.16,1.26a6.9,6.9,0,0,1-2.47,1,18.63,18.63,0,0,1-2.79.26l2.22,3.42a15.79,15.79,0,0,0,2.65-.66,13.47,13.47,0,0,0,1.88-.78c.44-.23.81-.44,1.1-.63a8.34,8.34,0,0,0,2.42-2.29,5.11,5.11,0,0,0,.92-2.67,4.69,4.69,0,0,0-.8-2.71A4,4,0,0,0,261.67,271.42Zm17.74-9.13-5.81,4.8-2.26-2.74,5.39-4.45-2.14-2.58-5.38,4.45-1.94-2.36,5.64-4.66-2.12-2.57L261.27,260l10.6,12.82,9.67-8Z"/><path class="cls-11" d="M177.41,25.55A151.5,151.5,0,0,1,284.53,284.18,151.5,151.5,0,0,1,70.28,69.93,150.5,150.5,0,0,1,177.41,25.55m0-4a155.5,155.5,0,1,0,155.5,155.5,155.5,155.5,0,0,0-155.5-155.5Z"/></svg>