<svg id="Lager_1" data-name="Lager 1" xmlns="http://www.w3.org/2000/svg" viewBox="0 0 1000 2058.76"><defs><style>.cls-1{fill:#fff;}</style></defs><title>msk-map_flat--white</title><polygon class="cls-1" points="25.18 794.37 84.9 886.27 260.57 1077.83 356.27 1181.36 383.19 1280.99 421.44 1308.69 550.58 1591.36 566.94 1652.54 593.86 1687.24 671.69 1717.71 720.31 1744.57 754.76 1786.63 785.42 1866.93 830.74 1959.38 923.34 2058.76 923.34 2005.19 904.17 1982.75 904.17 1855.54 877.38 1834.54 884.94 1637.27 896.41 1602.82 900.36 1514.62 923.34 1483.92 961.59 1487.94 984.6 1330.72 942.94 1308.69 945.41 1273.41 927 1273.41 927 1238.78 945.41 1221.48 945.41 1181.36 984.6 1169.87 1000 1146.91 915.66 1047.25 671.69 1039.61 689.56 1005.16 697.33 943.69 671.69 916.99 671.69 853.33 647.56 821.2 647.56 748.27 639.95 725.57 628.46 663.98 589.9 644.85 574.76 583.02 550.58 545.37 532.45 472.41 512.62 457.19 512.62 369.17 413.78 188.96 406.02 116.13 375.5 116.13 375.5 54.79 352.45 0 158.27 256.21 158.27 311.58 158.27 384.52 122.62 399.6 122.62 457.19 84.9 476.29 84.9 519.72 45.94 549.09 25.18 633.52 25.18 652.61 0 663.98 0 798.12 25.18 794.37"/></svg>